<?xml version="1.0" standalone="no"?>
<!DOCTYPE svg PUBLIC "-//W3C//DTD SVG 20010904//EN"
 "http://www.w3.org/TR/2001/REC-SVG-20010904/DTD/svg10.dtd">
<svg version="1.0" xmlns="http://www.w3.org/2000/svg"
 width="731.000000pt" height="271.000000pt" viewBox="0 0 731.000000 271.000000"
 preserveAspectRatio="xMidYMid meet">
<metadata>
Created by potrace 1.12, written by Peter Selinger 2001-2015
</metadata>
<g transform="translate(0.000000,271.000000) scale(0.100000,-0.100000)"
fill="#ffffff" stroke="none">
<path d="M2897 2686 c-3 -8 -8 -60 -12 -117 l-7 -104 61 -200 c34 -110 74
-238 90 -285 16 -47 53 -157 81 -245 37 -113 73 -200 124 -295 39 -74 72 -138
74 -142 2 -3 -6 -9 -17 -13 -11 -3 -57 -40 -103 -82 -189 -172 -272 -213 -449
-220 -193 -9 -377 42 -478 133 -46 41 -49 47 -40 73 6 16 48 75 95 132 183
225 222 295 190 343 -19 30 -85 50 -135 41 -64 -11 -138 -54 -190 -110 -107
-118 -161 -312 -112 -407 17 -34 17 -38 2 -52 -43 -39 -103 -44 -226 -20 -224
44 -349 3 -539 -176 -172 -161 -234 -154 -295 32 -27 81 -54 118 -87 118 -57
0 -168 -140 -446 -560 -169 -256 -244 -355 -314 -412 -40 -33 -96 -58 -130
-58 -6 0 -17 -6 -23 -14 -18 -21 16 -36 82 -36 98 0 150 55 339 365 215 352
386 600 435 632 22 14 25 14 44 -3 12 -11 35 -46 51 -79 62 -124 101 -155 193
-155 80 0 118 23 252 158 181 181 248 205 423 148 102 -33 158 -31 240 12 l55
28 55 -33 c73 -44 237 -107 333 -128 59 -13 108 -16 195 -13 171 7 286 48 507
178 47 28 90 48 96 44 7 -4 8 -24 4 -55 l-7 -48 59 -16 c133 -37 132 -36 282
-205 144 -163 241 -253 298 -276 39 -17 99 -18 109 -3 7 12 -107 127 -259 262
-74 66 -145 153 -134 164 3 3 51 0 107 -6 152 -17 444 -13 871 10 589 32 1002
18 1086 -36 12 -8 28 -27 35 -42 7 -15 27 -37 44 -48 55 -37 196 -87 260 -93
l61 -5 53 56 c29 31 66 61 82 68 45 18 198 6 293 -24 140 -45 331 -67 575 -67
134 0 185 8 167 26 -4 4 -117 11 -251 15 -310 10 -376 19 -530 69 -69 23 -145
44 -168 49 -30 5 -42 12 -39 22 2 8 6 57 8 109 4 80 1 100 -15 129 -26 49 -83
76 -157 76 -93 0 -141 -29 -277 -167 -136 -137 -103 -128 -348 -98 -196 24
-339 25 -720 5 -634 -33 -1049 -12 -1199 58 -105 49 -244 220 -335 410 -93
197 -146 369 -236 767 -87 388 -113 469 -133 416z m-507 -1091 c19 -23 -2 -84
-62 -177 -45 -70 -145 -174 -190 -199 -45 -25 -60 124 -20 201 63 121 229 227
272 175z m3804 -410 c90 -43 86 -176 -8 -234 -40 -25 -137 -51 -188 -51 -57 0
-158 55 -158 85 0 18 107 132 154 164 75 51 142 63 200 36z"/>
</g>
</svg>
