<?xml version="1.0" standalone="no"?>
<!DOCTYPE svg PUBLIC "-//W3C//DTD SVG 20010904//EN"
 "http://www.w3.org/TR/2001/REC-SVG-20010904/DTD/svg10.dtd">
<svg version="1.0" xmlns="http://www.w3.org/2000/svg"
 width="105.000000pt" height="183.000000pt" viewBox="0 0 105.000000 183.000000"
 preserveAspectRatio="xMidYMid meet">
<metadata>
Created by potrace 1.10, written by Peter Selinger 2001-2011
</metadata>
<g transform="translate(0.000000,183.000000) scale(0.100000,-0.100000)"
fill="#0000FF" stroke="none">
<path d="M316 1551 c-194 -195 -220 -230 -176 -239 9 -1 94 76 195 178 99 99
187 180 195 180 8 0 96 -81 195 -180 102 -103 186 -179 195 -178 8 2 16 12 18
23 2 14 -52 75 -196 218 -109 108 -205 197 -213 197 -8 0 -104 -90 -213 -199z"/>
<path d="M500 935 l0 -256 28 3 27 3 0 250 0 250 -27 3 -28 3 0 -256z"/>
<path d="M127 553 c-19 -19 10 -55 198 -242 l204 -204 206 204 c202 201 230
238 185 247 -10 1 -90 -72 -195 -177 -99 -99 -187 -180 -195 -180 -8 0 -96 80
-194 179 -99 99 -185 180 -191 180 -6 0 -15 -3 -18 -7z"/>
</g>
</svg>
